<svg width="163" height="24" viewBox="0 0 163 24" fill="none" xmlns="http://www.w3.org/2000/svg">
<path d="M2.46591 24H0.965909L9.36364 0.727272H11L19.3977 24H17.8977L10.2386 2.55682H10.125L2.46591 24ZM4.59091 15.2386H15.7727V16.5568H4.59091V15.2386ZM23.7386 24V0.727272H30.9091C32.3864 0.727272 33.6515 1.0303 34.7045 1.63636C35.7652 2.24242 36.5795 3.07197 37.1477 4.125C37.7159 5.17803 38 6.37879 38 7.72727C38 9.06061 37.7159 10.2538 37.1477 11.3068C36.5795 12.3598 35.7652 13.1932 34.7045 13.8068C33.6515 14.4129 32.3902 14.7159 30.9205 14.7159H24.7386V13.3977H30.8864C32.0833 13.3977 33.1061 13.1553 33.9545 12.6705C34.803 12.178 35.4545 11.5076 35.9091 10.6591C36.3636 9.80303 36.5909 8.82576 36.5909 7.72727C36.5909 6.62121 36.3636 5.64015 35.9091 4.78409C35.4545 3.92803 34.7992 3.25758 33.9432 2.77273C33.0947 2.28788 32.072 2.04545 30.875 2.04545H25.1591V24H23.7386ZM43.4574 24V0.727272H50.6278C52.1051 0.727272 53.3703 1.0303 54.4233 1.63636C55.4839 2.24242 56.2983 3.07197 56.8665 4.125C57.4347 5.17803 57.7188 6.37879 57.7188 7.72727C57.7188 9.06061 57.4347 10.2538 56.8665 11.3068C56.2983 12.3598 55.4839 13.1932 54.4233 13.8068C53.3703 14.4129 52.1089 14.7159 50.6392 14.7159H44.4574V13.3977H50.6051C51.8021 13.3977 52.8248 13.1553 53.6733 12.6705C54.5218 12.178 55.1733 11.5076 55.6278 10.6591C56.0824 9.80303 56.3097 8.82576 56.3097 7.72727C56.3097 6.62121 56.0824 5.64015 55.6278 4.78409C55.1733 3.92803 54.518 3.25758 53.6619 2.77273C52.8134 2.28788 51.7907 2.04545 50.5938 2.04545H44.8778V24H43.4574ZM71.108 24V0.727272H79.8352C81.6231 0.727272 83.1231 1.06061 84.3352 1.72727C85.5549 2.39394 86.4754 3.31061 87.0966 4.47727C87.7254 5.63636 88.0398 6.95454 88.0398 8.43182C88.0398 9.92424 87.7254 11.25 87.0966 12.4091C86.4678 13.5682 85.5398 14.4811 84.3125 15.1477C83.0852 15.8068 81.5739 16.1364 79.7784 16.1364H73.9943V12.6705H79.2102C80.2557 12.6705 81.1117 12.4886 81.7784 12.125C82.4451 11.7614 82.9375 11.2614 83.2557 10.625C83.5814 9.98864 83.7443 9.25758 83.7443 8.43182C83.7443 7.60606 83.5814 6.87879 83.2557 6.25C82.9375 5.62121 82.4413 5.13258 81.767 4.78409C81.1004 4.42803 80.2405 4.25 79.1875 4.25H75.3239V24H71.108ZM95.9176 0.727272V24H91.7017V0.727272H95.9176ZM100.051 24V21.375L111.983 4.26136H99.983V0.727272H117.21V3.35227L105.29 20.4659H117.278V24H100.051ZM120.926 24V21.375L132.858 4.26136H120.858V0.727272H138.085V3.35227L126.165 20.4659H138.153V24H120.926ZM145.222 24H140.722L148.915 0.727272H154.119L162.324 24H157.824L151.608 5.5H151.426L145.222 24ZM145.369 14.875H157.642V18.2614H145.369V14.875Z" fill="#FF3F4B"/>
</svg>
