<svg width="263" height="60" viewBox="0 0 263 60" fill="none" xmlns="http://www.w3.org/2000/svg">
<path d="M10.9545 47.6179C8.86648 47.6179 7.00568 47.2557 5.37216 46.5312C3.73864 45.7926 2.44602 44.706 1.49432 43.2713C0.556818 41.8224 0.0880682 40.0185 0.0880682 37.8594C0.0880682 36.0412 0.421875 34.5142 1.08949 33.2784C1.7571 32.0426 2.66619 31.0483 3.81676 30.2955C4.96733 29.5426 6.27415 28.9744 7.73722 28.5909C9.21449 28.2074 10.7628 27.9375 12.3821 27.7812C14.2855 27.5824 15.8196 27.3977 16.9844 27.2273C18.1491 27.0426 18.9943 26.7727 19.5199 26.4176C20.0455 26.0625 20.3082 25.5369 20.3082 24.8409V24.7131C20.3082 23.3636 19.8821 22.3196 19.0298 21.581C18.1918 20.8423 16.9986 20.473 15.4503 20.473C13.8168 20.473 12.517 20.8352 11.5511 21.5597C10.5852 22.2699 9.94602 23.1648 9.63352 24.2443L1.23864 23.5625C1.66477 21.5739 2.50284 19.8551 3.75284 18.4062C5.00284 16.9432 6.61506 15.821 8.58949 15.0398C10.5781 14.2443 12.8793 13.8466 15.4929 13.8466C17.3111 13.8466 19.0511 14.0597 20.7131 14.4858C22.3892 14.9119 23.8736 15.5724 25.1662 16.4673C26.473 17.3622 27.5028 18.5128 28.2557 19.919C29.0085 21.3111 29.3849 22.9801 29.3849 24.9261V47H20.777V42.4616H20.5213C19.9957 43.4844 19.2926 44.3864 18.4119 45.1676C17.5312 45.9347 16.473 46.5384 15.2372 46.9787C14.0014 47.4048 12.5739 47.6179 10.9545 47.6179ZM13.554 41.3537C14.8892 41.3537 16.0682 41.0909 17.0909 40.5653C18.1136 40.0256 18.9162 39.3011 19.4986 38.392C20.081 37.483 20.3722 36.4531 20.3722 35.3026V31.8295C20.0881 32.0142 19.6974 32.1847 19.2003 32.3409C18.7173 32.483 18.1705 32.6179 17.5597 32.7457C16.9489 32.8594 16.3381 32.9659 15.7273 33.0653C15.1165 33.1506 14.5625 33.2287 14.0653 33.2997C13 33.456 12.0696 33.7045 11.2741 34.0455C10.4787 34.3864 9.8608 34.848 9.42046 35.4304C8.98011 35.9986 8.75994 36.7088 8.75994 37.5611C8.75994 38.7969 9.20739 39.7415 10.1023 40.3949C11.0114 41.0341 12.1619 41.3537 13.554 41.3537ZM36.4268 59.2727V14.2727H45.3757V19.7699H45.7805C46.1783 18.8892 46.7536 17.9943 47.5064 17.0852C48.2734 16.1619 49.2678 15.3949 50.4893 14.7841C51.7251 14.1591 53.2592 13.8466 55.0916 13.8466C57.478 13.8466 59.6797 14.4716 61.6967 15.7216C63.7138 16.9574 65.326 18.8253 66.5334 21.3253C67.7408 23.8111 68.3445 26.929 68.3445 30.679C68.3445 34.3295 67.755 37.4119 66.576 39.9261C65.4112 42.4261 63.8203 44.3224 61.8033 45.6151C59.8004 46.8935 57.5561 47.5327 55.0703 47.5327C53.3089 47.5327 51.8104 47.2415 50.5746 46.6591C49.353 46.0767 48.3516 45.3452 47.5703 44.4645C46.7891 43.5696 46.1925 42.6676 45.7805 41.7585H45.5036V59.2727H36.4268ZM45.3118 30.6364C45.3118 32.5824 45.5817 34.2798 46.1214 35.7287C46.6612 37.1776 47.4425 38.3068 48.4652 39.1165C49.4879 39.9119 50.7308 40.3097 52.1939 40.3097C53.6712 40.3097 54.9212 39.9048 55.9439 39.0952C56.9666 38.2713 57.7408 37.1349 58.2663 35.6861C58.8061 34.223 59.076 32.5398 59.076 30.6364C59.076 28.7472 58.8132 27.0852 58.2876 25.6506C57.7621 24.2159 56.9879 23.0937 55.9652 22.2841C54.9425 21.4744 53.6854 21.0696 52.1939 21.0696C50.7166 21.0696 49.4666 21.4602 48.4439 22.2415C47.4354 23.0227 46.6612 24.1307 46.1214 25.5653C45.5817 27 45.3118 28.6903 45.3118 30.6364ZM74.3956 59.2727V14.2727H83.3445V19.7699H83.7493C84.147 18.8892 84.7223 17.9943 85.4751 17.0852C86.2422 16.1619 87.2365 15.3949 88.4581 14.7841C89.6939 14.1591 91.228 13.8466 93.0604 13.8466C95.4467 13.8466 97.6484 14.4716 99.6655 15.7216C101.683 16.9574 103.295 18.8253 104.502 21.3253C105.71 23.8111 106.313 26.929 106.313 30.679C106.313 34.3295 105.724 37.4119 104.545 39.9261C103.38 42.4261 101.789 44.3224 99.772 45.6151C97.7692 46.8935 95.5249 47.5327 93.0391 47.5327C91.2777 47.5327 89.7791 47.2415 88.5433 46.6591C87.3217 46.0767 86.3203 45.3452 85.5391 44.4645C84.7578 43.5696 84.1612 42.6676 83.7493 41.7585H83.4723V59.2727H74.3956ZM83.2805 30.6364C83.2805 32.5824 83.5504 34.2798 84.0902 35.7287C84.63 37.1776 85.4112 38.3068 86.4339 39.1165C87.4567 39.9119 88.6996 40.3097 90.1626 40.3097C91.6399 40.3097 92.8899 39.9048 93.9126 39.0952C94.9354 38.2713 95.7095 37.1349 96.2351 35.6861C96.7749 34.223 97.0447 32.5398 97.0447 30.6364C97.0447 28.7472 96.782 27.0852 96.2564 25.6506C95.7308 24.2159 94.9567 23.0937 93.9339 22.2841C92.9112 21.4744 91.6541 21.0696 90.1626 21.0696C88.6854 21.0696 87.4354 21.4602 86.4126 22.2415C85.4041 23.0227 84.63 24.1307 84.0902 25.5653C83.5504 27 83.2805 28.6903 83.2805 30.6364Z" fill="white"/>
<path d="M112.364 59.2727V14.2727H121.313V19.7699H121.718C122.116 18.8892 122.691 17.9943 123.444 17.0852C124.211 16.1619 125.205 15.3949 126.427 14.7841C127.663 14.1591 129.197 13.8466 131.029 13.8466C133.415 13.8466 135.617 14.4716 137.634 15.7216C139.651 16.9574 141.263 18.8253 142.471 21.3253C143.678 23.8111 144.282 26.929 144.282 30.679C144.282 34.3295 143.692 37.4119 142.513 39.9261C141.349 42.4261 139.758 44.3224 137.741 45.6151C135.738 46.8935 133.494 47.5327 131.008 47.5327C129.246 47.5327 127.748 47.2415 126.512 46.6591C125.29 46.0767 124.289 45.3452 123.508 44.4645C122.727 43.5696 122.13 42.6676 121.718 41.7585H121.441V59.2727H112.364ZM121.249 30.6364C121.249 32.5824 121.519 34.2798 122.059 35.7287C122.599 37.1776 123.38 38.3068 124.403 39.1165C125.425 39.9119 126.668 40.3097 128.131 40.3097C129.609 40.3097 130.859 39.9048 131.881 39.0952C132.904 38.2713 133.678 37.1349 134.204 35.6861C134.744 34.223 135.013 32.5398 135.013 30.6364C135.013 28.7472 134.751 27.0852 134.225 25.6506C133.7 24.2159 132.925 23.0937 131.903 22.2841C130.88 21.4744 129.623 21.0696 128.131 21.0696C126.654 21.0696 125.404 21.4602 124.381 22.2415C123.373 23.0227 122.599 24.1307 122.059 25.5653C121.519 27 121.249 28.6903 121.249 30.6364ZM150.333 47V14.2727H159.41V47H150.333ZM154.893 10.054C153.543 10.054 152.386 9.60653 151.42 8.71165C150.468 7.80256 149.992 6.71591 149.992 5.4517C149.992 4.2017 150.468 3.12926 151.42 2.23438C152.386 1.32528 153.543 0.870736 154.893 0.870736C156.242 0.870736 157.393 1.32528 158.344 2.23438C159.31 3.12926 159.793 4.2017 159.793 5.4517C159.793 6.71591 159.31 7.80256 158.344 8.71165C157.393 9.60653 156.242 10.054 154.893 10.054ZM166.51 47V41.5881L182.533 21.7514V21.517H167.064V14.2727H193.463V20.1747L178.421 39.5213V39.7557H194.017V47H166.51ZM200.788 47V41.5881L216.81 21.7514V21.517H201.342V14.2727H227.741V20.1747L212.698 39.5213V39.7557H228.295V47H200.788ZM244.568 47.6179C242.48 47.6179 240.619 47.2557 238.985 46.5312C237.352 45.7926 236.059 44.706 235.108 43.2713C234.17 41.8224 233.701 40.0185 233.701 37.8594C233.701 36.0412 234.035 34.5142 234.703 33.2784C235.37 32.0426 236.279 31.0483 237.43 30.2955C238.581 29.5426 239.887 28.9744 241.35 28.5909C242.828 28.2074 244.376 27.9375 245.995 27.7812C247.899 27.5824 249.433 27.3977 250.598 27.2273C251.762 27.0426 252.608 26.7727 253.133 26.4176C253.659 26.0625 253.922 25.5369 253.922 24.8409V24.7131C253.922 23.3636 253.495 22.3196 252.643 21.581C251.805 20.8423 250.612 20.473 249.064 20.473C247.43 20.473 246.13 20.8352 245.164 21.5597C244.199 22.2699 243.559 23.1648 243.247 24.2443L234.852 23.5625C235.278 21.5739 236.116 19.8551 237.366 18.4062C238.616 16.9432 240.228 15.821 242.203 15.0398C244.191 14.2443 246.493 13.8466 249.106 13.8466C250.924 13.8466 252.664 14.0597 254.326 14.4858C256.002 14.9119 257.487 15.5724 258.779 16.4673C260.086 17.3622 261.116 18.5128 261.869 19.919C262.622 21.3111 262.998 22.9801 262.998 24.9261V47H254.39V42.4616H254.135C253.609 43.4844 252.906 44.3864 252.025 45.1676C251.145 45.9347 250.086 46.5384 248.85 46.9787C247.615 47.4048 246.187 47.6179 244.568 47.6179ZM247.167 41.3537C248.502 41.3537 249.681 41.0909 250.704 40.5653C251.727 40.0256 252.529 39.3011 253.112 38.392C253.694 37.483 253.985 36.4531 253.985 35.3026V31.8295C253.701 32.0142 253.311 32.1847 252.814 32.3409C252.331 32.483 251.784 32.6179 251.173 32.7457C250.562 32.8594 249.951 32.9659 249.341 33.0653C248.73 33.1506 248.176 33.2287 247.679 33.2997C246.613 33.456 245.683 33.7045 244.887 34.0455C244.092 34.3864 243.474 34.848 243.034 35.4304C242.593 35.9986 242.373 36.7088 242.373 37.5611C242.373 38.7969 242.821 39.7415 243.716 40.3949C244.625 41.0341 245.775 41.3537 247.167 41.3537Z" fill="#FF3F4B"/>
</svg>
